<?xml version="1.0" encoding="UTF-8" standalone="no"?>
<!-- Generator: Adobe Illustrator 16.0.0, SVG Export Plug-In . SVG Version: 6.00 Build 0)  -->

<svg
   version="1.1"
   id="Capa_1"
   x="0px"
   y="0px"
   width="98.586px"
   height="59.965px"
   viewBox="0 0 98.586 59.965"
   enable-background="new 0 0 98.586 59.965"
   xml:space="preserve"
   sodipodi:docname="itc-brand.svg"
   inkscape:version="1.3 (0e150ed6c4, 2023-07-21)"
   xmlns:inkscape="http://www.inkscape.org/namespaces/inkscape"
   xmlns:sodipodi="http://sodipodi.sourceforge.net/DTD/sodipodi-0.dtd"
   xmlns="http://www.w3.org/2000/svg"
   xmlns:svg="http://www.w3.org/2000/svg"><defs
   id="defs3" /><sodipodi:namedview
   id="namedview3"
   pagecolor="#ffffff"
   bordercolor="#000000"
   borderopacity="0.25"
   inkscape:showpageshadow="2"
   inkscape:pageopacity="0.0"
   inkscape:pagecheckerboard="0"
   inkscape:deskcolor="#d1d1d1"
   inkscape:zoom="7.2083493"
   inkscape:cx="36.69356"
   inkscape:cy="31.699352"
   inkscape:window-width="1920"
   inkscape:window-height="991"
   inkscape:window-x="-9"
   inkscape:window-y="-9"
   inkscape:window-maximized="1"
   inkscape:current-layer="Capa_1" />&#10;&#10;&#10;&#10;&#10;<g
   id="g5"><g
     id="g4"><g
       id="g3"><path
         fill="#FFFFFF"
         d="M89.215,38.965c-1.496-0.562-2.963-0.998-4.396-1.312c-1.436-0.312-2.838-0.467-4.211-0.467  c-1.463,0-2.733,0.221-3.812,0.653c-1.075,0.438-1.955,1.021-2.644,1.755c-0.688,0.734-1.19,1.59-1.521,2.571  c-0.327,0.979-0.489,2.021-0.489,3.11c0,1.248,0.18,2.308,0.537,3.183c0.358,0.871,0.866,1.582,1.521,2.125  c0.654,0.547,1.428,0.942,2.312,1.192c0.891,0.252,1.854,0.375,2.879,0.375c1.153,0,2.299-0.141,3.438-0.42  c1.139-0.28,2.254-0.641,3.346-1.076l1.355,7.623c-1.59,0.688-3.088,1.14-4.49,1.357c-1.402,0.219-2.789,0.326-4.162,0.326  c-2.525,0-4.777-0.32-6.758-0.959s-3.666-1.553-5.055-2.734c-1.387-1.184-2.438-2.604-3.156-4.258  c-0.719-1.65-1.076-3.506-1.076-5.566c0-2.149,0.352-4.254,1.053-6.313s1.785-3.881,3.252-5.476c1.465-1.59,3.32-2.875,5.564-3.856  c2.246-0.979,4.896-1.472,7.951-1.472c1.871,0,3.648,0.14,5.334,0.422c1.684,0.28,3.305,0.67,4.863,1.167L89.215,38.965z"
         id="path1"
         style="fill:#000000;fill-opacity:1" /><polygon
         fill="#FFFFFF"
         points="52.275,37.559 48.065,59.266 38.851,59.266 43.061,37.559 34.221,37.559 35.671,30.03 62.566,30.03   61.116,37.559 "
         id="polygon1"
         style="fill:#000000;fill-opacity:1" /><polygon
         fill="#FFFFFF"
         points="16.429,59.266 20.27,39.426 29.531,39.426 25.69,59.266 "
         id="polygon2"
         style="fill:#000000;fill-opacity:1" /></g><polygon
       fill="#EE3E00"
       points="20.629,37.573 22.088,30.03 31.351,30.03 29.892,37.573 "
       id="polygon3" /></g><path
     fill="#EE3E00"
     d="M46.894,1.587c18.61-4.325,37.209,0.428,51.163,11.365C84.032,3.408,66.215-0.477,48.389,3.667  C21.477,9.922,2.646,32.577,0,58.611C0.887,31.84,19.562,7.938,46.894,1.587"
     id="path3" /></g>&#10;</svg>
